<svg width="24" height="24" viewBox="0 0 24 24" fill="none" xmlns="http://www.w3.org/2000/svg">
<mask id="mask0_9_129" style="mask-type:alpha" maskUnits="userSpaceOnUse" x="0" y="0" width="24" height="24">
<rect width="24" height="24" fill="#D9D9D9"/>
</mask>
<g mask="url(#mask0_9_129)">
<path d="M12.05 19.825C9.86664 19.825 8.00831 19.0627 6.47498 17.538C4.94164 16.0127 4.17498 14.15 4.17498 11.95V11.7L2.54998 13.325L1.22498 12L5.12498 8.125L8.99998 12L7.67498 13.325L6.04998 11.7V11.95C6.04998 13.6167 6.63331 15.0333 7.79998 16.2C8.96664 17.3667 10.3833 17.95 12.05 17.95C12.4833 17.95 12.9 17.904 13.3 17.812C13.7 17.7207 14.1 17.575 14.5 17.375L15.9 18.775C15.3 19.125 14.675 19.3873 14.025 19.562C13.375 19.7373 12.7166 19.825 12.05 19.825ZM18.875 15.825L15 11.95L16.325 10.625L17.95 12.25V12C17.95 10.3167 17.3706 8.89567 16.212 7.737C15.054 6.579 13.6333 6 11.95 6C11.5333 6 11.121 6.04567 10.713 6.137C10.3043 6.229 9.89997 6.36667 9.49998 6.55L8.09998 5.15C8.71664 4.8 9.34597 4.54167 9.98798 4.375C10.6293 4.20833 11.2833 4.125 11.95 4.125C14.15 4.125 16.0126 4.88333 17.538 6.4C19.0626 7.91667 19.825 9.78333 19.825 12V12.25L21.45 10.625L22.775 11.95L18.875 15.825Z" fill="white"/>
</g>
</svg>
