<svg width="24" height="24" viewBox="0 0 24 24" fill="none" xmlns="http://www.w3.org/2000/svg">
<mask id="mask0_9_117" style="mask-type:alpha" maskUnits="userSpaceOnUse" x="0" y="0" width="24" height="24">
<rect width="24" height="24" fill="#D9D9D9"/>
</mask>
<g mask="url(#mask0_9_117)">
<path d="M12 20.725L10.65 19.5C9 18.0166 7.63333 16.7333 6.55 15.65C5.46667 14.5666 4.60433 13.5956 3.963 12.737C3.321 11.879 2.875 11.0916 2.625 10.375C2.375 9.65831 2.25 8.92498 2.25 8.17498C2.25 6.65831 2.75833 5.39164 3.775 4.37498C4.79167 3.35831 6.05833 2.84998 7.575 2.84998C8.425 2.84998 9.23733 3.03331 10.012 3.39998C10.7873 3.76664 11.45 4.29164 12 4.97498C12.5833 4.29164 13.254 3.76664 14.012 3.39998C14.7707 3.03331 15.575 2.84998 16.425 2.84998C17.9417 2.84998 19.2083 3.35831 20.225 4.37498C21.2417 5.39164 21.75 6.65831 21.75 8.17498C21.75 8.92498 21.625 9.65831 21.375 10.375C21.125 11.0916 20.6793 11.879 20.038 12.737C19.396 13.5956 18.5333 14.5666 17.45 15.65C16.3667 16.7333 15 18.0166 13.35 19.5L12 20.725Z" fill="white"/>
</g>
</svg>
