<svg width="20" height="16" viewBox="0 0 20 16" fill="none" xmlns="http://www.w3.org/2000/svg">
<path d="M2.125 15.775C1.60833 15.775 1.16667 15.5917 0.8 15.225C0.433333 14.8583 0.25 14.4167 0.25 13.9V2.10001C0.25 1.58334 0.433333 1.14167 0.8 0.775006C1.16667 0.40834 1.60833 0.225006 2.125 0.225006H17.875C18.3917 0.225006 18.8333 0.40834 19.2 0.775006C19.5667 1.14167 19.75 1.58334 19.75 2.10001V13.9C19.75 14.4167 19.5667 14.8583 19.2 15.225C18.8333 15.5917 18.3917 15.775 17.875 15.775H2.125ZM10 8.90001L17.875 3.97501V2.10001L10 7.02501L2.125 2.10001V3.97501L10 8.90001Z" fill="white"/>
</svg>
