<svg width="16" height="20" viewBox="0 0 16 20" fill="none" xmlns="http://www.w3.org/2000/svg">
<path d="M0.175003 16.95V15.075H2.15V8.05C2.15 6.7 2.55834 5.49567 3.375 4.437C4.19167 3.379 5.25 2.69167 6.55 2.375V1.7C6.55 1.3 6.69167 0.958333 6.975 0.675C7.25834 0.391667 7.6 0.25 8 0.25C8.4 0.25 8.74167 0.391667 9.025 0.675C9.30834 0.958333 9.45 1.3 9.45 1.7V2.375C10.7667 2.69167 11.8333 3.379 12.65 4.437C13.4667 5.49567 13.875 6.7 13.875 8.05V15.075H15.85V16.95H0.175003ZM8 19.825C7.46667 19.825 7.00834 19.6333 6.625 19.25C6.24167 18.8667 6.05 18.4083 6.05 17.875H9.95C9.95 18.4083 9.76267 18.8667 9.388 19.25C9.01267 19.6333 8.55 19.825 8 19.825Z" fill="white"/>
</svg>
