<svg width="16" height="16" viewBox="0 0 16 16" fill="none" xmlns="http://www.w3.org/2000/svg">
<path d="M5.72501 7.92499C5.15834 7.92499 4.68734 7.71665 4.31201 7.29999C3.93734 6.88332 3.78334 6.39165 3.85001 5.82499L4.20001 3.29999C4.33334 2.34999 4.75834 1.57065 5.47501 0.961987C6.19167 0.353988 7.03334 0.0499878 8.00001 0.0499878C8.96667 0.0499878 9.81267 0.353988 10.538 0.961987C11.2627 1.57065 11.6917 2.34999 11.825 3.29999L12.15 5.82499C12.2333 6.39165 12.0877 6.88332 11.713 7.29999C11.3377 7.71665 10.8667 7.92499 10.3 7.92499H5.72501ZM0.225006 15.675V13.025C0.225006 12.475 0.366673 11.9707 0.650006 11.512C0.93334 11.054 1.30834 10.7083 1.77501 10.475C2.79167 9.97499 3.82101 9.59565 4.86301 9.33699C5.90434 9.07899 6.95001 8.94999 8.00001 8.94999C9.06667 8.94999 10.1167 9.07899 11.15 9.33699C12.1833 9.59565 13.2083 9.97499 14.225 10.475C14.7083 10.7083 15.0877 11.054 15.363 11.512C15.6377 11.9707 15.775 12.475 15.775 13.025V15.675H0.225006Z" fill="white"/>
</svg>
