<svg width="18" height="18" viewBox="0 0 18 18" fill="none" xmlns="http://www.w3.org/2000/svg">
<path d="M16.475 17.775L10.275 11.575C9.79164 11.975 9.22931 12.2873 8.58798 12.512C7.94598 12.7373 7.26664 12.85 6.54998 12.85C4.78331 12.85 3.28731 12.2373 2.06198 11.012C0.837309 9.78733 0.224976 8.29167 0.224976 6.525C0.224976 4.75833 0.833309 3.26233 2.04998 2.037C3.26664 0.812334 4.75831 0.200001 6.52498 0.200001C8.30831 0.200001 9.81264 0.812334 11.038 2.037C12.2626 3.26233 12.875 4.75833 12.875 6.525C12.875 7.24167 12.7626 7.92067 12.538 8.562C12.3126 9.204 12 9.775 11.6 10.275L17.8 16.45L16.475 17.775ZM6.54998 10.975C7.78331 10.975 8.83331 10.5417 9.69998 9.675C10.5666 8.80833 11 7.75833 11 6.525C11 5.275 10.5666 4.22067 9.69998 3.362C8.83331 2.504 7.78331 2.075 6.54998 2.075C5.29998 2.075 4.24598 2.504 3.38798 3.362C2.52931 4.22067 2.09998 5.275 2.09998 6.525C2.09998 7.75833 2.52931 8.80833 3.38798 9.675C4.24598 10.5417 5.29998 10.975 6.54998 10.975Z" fill="#949494"/>
</svg>
